<svg id="Layer_1" data-name="Layer 1" xmlns="http://www.w3.org/2000/svg" viewBox="0 0 25 28.57"><defs><style>.cls-1{fill:#fff;}.cls-2{fill:red;}</style></defs><title>lips</title><path class="cls-1" d="M48.49,36q0,6.93,0,13.86c0,.35-.07.42-.43.42H23.93c-.36,0-.43-.07-.43-.42q0-13.86,0-27.72c0-.35.07-.42.43-.42q12.08,0,24.14,0c.36,0,.43.07.43.42Q48.49,29.07,48.49,36Z" transform="translate(-23.5 -21.72)"/><path d="M36.93,24.49a5.85,5.85,0,0,1,3.52-1.89A2.82,2.82,0,0,1,43.14,24,8.41,8.41,0,0,1,44,26.12,7.66,7.66,0,0,0,47.5,31c.69.45.75,1,.11,1.54a30.29,30.29,0,0,0-2.33,2.2,17.15,17.15,0,0,0-2.37,4.16,30.07,30.07,0,0,1-2,4.15,6.44,6.44,0,0,1-3.57,2.7.37.37,0,0,1-.29,0A22.23,22.23,0,0,0,38.8,41.4,18.69,18.69,0,0,1,42,35a9.55,9.55,0,0,0-1.78,2.23,18,18,0,0,0-2.07,4.89,11.44,11.44,0,0,1-4.86,6.72c-1.4.94-2.81.59-4.24.41-2.49-.33-5.1-3.65-5.11-6.21a13.6,13.6,0,0,1,2.6-7.93.71.71,0,0,0,.07-.83A12.3,12.3,0,0,0,25,31.76c-.47-.6-.39-1.08.29-1.41a9.84,9.84,0,0,0,4.35-4.62,7.31,7.31,0,0,1,3-3,3.37,3.37,0,0,1,2.65-.29C36.26,22.73,36.65,23.52,36.93,24.49Z" transform="translate(-23.5 -21.72)"/><path class="cls-2" d="M44.36,32.28c-.86.83-1.68,1.61-2.44,2.45A16.72,16.72,0,0,0,38,42a11.07,11.07,0,0,1-4,6.11,5.84,5.84,0,0,1-7.54-.4c-2.63-2.37-2.84-5.24-1.84-8.37a13.07,13.07,0,0,1,2.13-4.21.61.61,0,0,0,.08-.75,12.63,12.63,0,0,0-1.63-2.68c-.49-.61-.43-.92.26-1.26a9.15,9.15,0,0,0,4.07-4.18,7.6,7.6,0,0,1,3.38-3.46,3,3,0,0,1,2.2-.22,2.15,2.15,0,0,1,1.5,1.62c.19.62.21.62.69.16a5.26,5.26,0,0,1,3.11-1.59,2.52,2.52,0,0,1,2.65,1.5,13.13,13.13,0,0,1,.76,2.24,7.82,7.82,0,0,0,3.53,4.6c.63.4.68.69.12,1.22S46.28,33.47,45.66,34c-1.48,1.36-2.18,3.18-3,4.94-.42.89-.79,1.81-1.21,2.71A7.12,7.12,0,0,1,37.7,45.4l-.17.05-.09-.06a32.9,32.9,0,0,0,1.8-4.73A17.22,17.22,0,0,1,45,32.45c.15-.13.4-.23.37-.44s-.32-.16-.5-.22a5.27,5.27,0,0,1-3.16-2.17,3.26,3.26,0,0,0-4.57-1.25c-.32.15-.67.26-1,.38a1.33,1.33,0,0,1-1.44-.28,3.14,3.14,0,0,0-4.13-.26,15.54,15.54,0,0,0-3.26,2.56c-.28.28-.39.52-.1.9a11.56,11.56,0,0,1,.9,1.47c.16.27.29.31.54.08a16.4,16.4,0,0,1,3.72-2.42.76.76,0,0,1,1.07.27,2.31,2.31,0,0,0,.86.81c-2.6,2.63-4.57,5.52-4.64,9.48a.63.63,0,0,0,.35-.55,17.48,17.48,0,0,1,2.57-6,6.85,6.85,0,0,1,2.05-2,3.51,3.51,0,0,1,2-.54,3.85,3.85,0,0,0,3.12-1.17c.35-.36.73-.07,1,.07a1.8,1.8,0,0,0,1.38.12.62.62,0,0,1,.69.1A9.2,9.2,0,0,0,44.36,32.28Z" transform="translate(-23.5 -21.72)"/><path class="cls-1" d="M32.53,27.69a2.34,2.34,0,0,1,1.56.63,2.29,2.29,0,0,0,2.84.35,4.08,4.08,0,0,1,2.27-.56,2.85,2.85,0,0,1,1.94,1.13,8.79,8.79,0,0,0,1.15,1.43c.25.2.09.33-.1.44a1.2,1.2,0,0,1-1.69-.45c-.22-.37-.33-.48-.7-.11a2.58,2.58,0,0,1-2.42.66,1.55,1.55,0,0,1-1.1-.92C36.14,30,36,30,35.8,30.2a2.46,2.46,0,0,1-2.09.59,1.58,1.58,0,0,1-1.26-.95c-.13-.31-.28-.35-.58-.27a1.43,1.43,0,0,1-1.53-.5c-.11-.16-.26-.34,0-.5A5.53,5.53,0,0,1,32.53,27.69Z" transform="translate(-23.5 -21.72)"/><path class="cls-1" d="M29.88,28.86c.15,0,.15.12.2.2a1.57,1.57,0,0,0,1.74.72c.48-.1.49.25.62.46s-.17.29-.3.36a16.7,16.7,0,0,0-3.53,2.26c-.2.18-.31.19-.45,0-.27-.48-.57-1-.86-1.42a.27.27,0,0,1,0-.37,15,15,0,0,1,2.42-2.08Z" transform="translate(-23.5 -21.72)"/><path class="cls-1" d="M30,39.74a9.71,9.71,0,0,1,1.34-3.81,14.2,14.2,0,0,1,3.06-3.83c.31-.27.22-.38-.09-.51a1,1,0,0,1-.61-.54,9.32,9.32,0,0,0,1.09-.12,2.75,2.75,0,0,0,.66-.26c.4-.31.63-.32,1,.16a1.86,1.86,0,0,0,2,.57l.63-.11a2.6,2.6,0,0,1-2.1.79,5,5,0,0,0-4.37,2.3,14.53,14.53,0,0,0-2.38,4.75C30.14,39.33,30.07,39.54,30,39.74Z" transform="translate(-23.5 -21.72)"/><path class="cls-1" d="M42.69,31.07a7.72,7.72,0,0,0,2.43,1l-.64.62c.4-.47,0-.54-.31-.68A3.39,3.39,0,0,1,42.69,31.07Z" transform="translate(-23.5 -21.72)"/><path class="cls-1" d="M44,33l-1.47,1.52,0,.05L44,33Z" transform="translate(-23.5 -21.72)"/><path class="cls-1" d="M40.05,30.7c0-.07,0-.13.06-.13a.13.13,0,0,1,.15.13s0,.07,0,.11Z" transform="translate(-23.5 -21.72)"/><path d="M32.84,44.78a1.62,1.62,0,0,1,.22-.78,38.88,38.88,0,0,0,2.81-5.81,12.41,12.41,0,0,1,2.81-4.08,2.93,2.93,0,0,1,.8-.61c.22-.09.48-.2.66,0s0,.42-.09.6-.27.39-.41.58a17.32,17.32,0,0,0-3.16,6.46,17.28,17.28,0,0,1-1,3.09,5.3,5.3,0,0,1-.81,1.24.89.89,0,0,1-1.11.31A1,1,0,0,1,32.84,44.78Z" transform="translate(-23.5 -21.72)"/><path d="M26.28,41.59A10.09,10.09,0,0,1,28.42,36a8.71,8.71,0,0,1,2.82-2.68c.21-.12.47-.45.72-.16s-.07.51-.24.72a21.82,21.82,0,0,0-3,4.92,12.7,12.7,0,0,0-.92,3.06c-.09.52-.24,1-.84.94s-.66-.58-.72-1.06A.48.48,0,0,1,26.28,41.59Z" transform="translate(-23.5 -21.72)"/><path d="M34.52,23a1.57,1.57,0,0,1,1.34.75.84.84,0,0,1,0,1.14,1,1,0,0,1-1.26.34,1.7,1.7,0,0,0-1.67-.2.4.4,0,0,1-.49-.08.58.58,0,0,1,0-.62A2.3,2.3,0,0,1,34.52,23Z" transform="translate(-23.5 -21.72)"/><path d="M42.42,24.6a1,1,0,0,1-.56.85.76.76,0,0,1-.94-.05,1,1,0,0,0-1.22-.21.66.66,0,0,1-.87-.32c-.21-.3,0-.53.19-.73a2.36,2.36,0,0,1,2.62-.52A1.29,1.29,0,0,1,42.42,24.6Z" transform="translate(-23.5 -21.72)"/><path class="cls-1" d="M33,44.81a1.15,1.15,0,0,1,.19-.68c1.43-2.16,2.18-4.65,3.36-6.94A12,12,0,0,1,39.15,34a2.52,2.52,0,0,1,.33-.24c.16-.09.36-.19.49,0s0,.29-.14.41c-.29.43-.58.86-.89,1.26-1.66,2.12-2.32,4.65-3.07,7.15a6.94,6.94,0,0,1-1.39,2.86c-.21.24-.45.45-.82.29A.89.89,0,0,1,33,44.81Z" transform="translate(-23.5 -21.72)"/><path class="cls-1" d="M31.79,33.28c0,.27-.19.38-.3.53a18.19,18.19,0,0,0-3.85,8.12c-.06.35-.24.68-.63.65s-.49-.36-.52-.7a5.15,5.15,0,0,1,.25-2.1,11.42,11.42,0,0,1,4.32-6.14A1.52,1.52,0,0,1,31.79,33.28Z" transform="translate(-23.5 -21.72)"/><path class="cls-1" d="M35.89,24.33c0,.52-.66,1-1.07.78a2.1,2.1,0,0,0-2-.23c-.21.11-.31-.08-.27-.3a2.18,2.18,0,0,1,1.66-1.36,1.48,1.48,0,0,1,1.53.78A1.7,1.7,0,0,1,35.89,24.33Z" transform="translate(-23.5 -21.72)"/><path class="cls-1" d="M40.75,23.61a1.56,1.56,0,0,1,1.14.42c.32.3.47.64.13,1s-.7.48-1.08.12a.92.92,0,0,0-1.22-.2.48.48,0,0,1-.68-.17c-.19-.26,0-.45.19-.61A2.18,2.18,0,0,1,40.75,23.61Z" transform="translate(-23.5 -21.72)"/></svg>